<?xml version="1.0" encoding="UTF-8" standalone="no"?>
<!-- Created with Inkscape (http://www.inkscape.org/) -->

<svg
   xmlns:osb="http://www.openswatchbook.org/uri/2009/osb"
   xmlns:dc="http://purl.org/dc/elements/1.1/"
   xmlns:cc="http://creativecommons.org/ns#"
   xmlns:rdf="http://www.w3.org/1999/02/22-rdf-syntax-ns#"
   xmlns:svg="http://www.w3.org/2000/svg"
   xmlns="http://www.w3.org/2000/svg"
   xmlns:sodipodi="http://sodipodi.sourceforge.net/DTD/sodipodi-0.dtd"
   xmlns:inkscape="http://www.inkscape.org/namespaces/inkscape"
   width="100"
   height="100"
   id="svg2"
   version="1.1"
   inkscape:version="0.48.3.1 r9886"
   sodipodi:docname="9.png">
  <defs
     id="defs4">
    <inkscape:path-effect
       effect="spiro"
       id="path-effect4156"
       is_visible="true" />
    <inkscape:path-effect
       effect="spiro"
       id="path-effect4146"
       is_visible="true" />
    <linearGradient
       id="linearGradient4115"
       osb:paint="solid">
      <stop
         style="stop-color:#cf8c8c;stop-opacity:1;"
         offset="0"
         id="stop4117" />
    </linearGradient>
  </defs>
  <sodipodi:namedview
     id="base"
     pagecolor="#ffffff"
     bordercolor="#666666"
     borderopacity="1.0"
     inkscape:pageopacity="0.0"
     inkscape:pageshadow="2"
     inkscape:zoom="5.6"
     inkscape:cx="44.174293"
     inkscape:cy="66.616115"
     inkscape:document-units="px"
     inkscape:current-layer="layer1"
     showgrid="false"
     width="1px"
     inkscape:window-width="1438"
     inkscape:window-height="879"
     inkscape:window-x="0"
     inkscape:window-y="19"
     inkscape:window-maximized="0" />
  <metadata
     id="metadata7">
    <rdf:RDF>
      <cc:Work
         rdf:about="">
        <dc:format>image/svg+xml</dc:format>
        <dc:type
           rdf:resource="http://purl.org/dc/dcmitype/StillImage" />
        <dc:title></dc:title>
      </cc:Work>
    </rdf:RDF>
  </metadata>
  <g
     inkscape:label="Layer 1"
     inkscape:groupmode="layer"
     id="layer1"
     transform="translate(0,-952.36218)">
    <path
       style="fill:none;stroke:#000000;stroke-width:1px;stroke-linecap:butt;stroke-linejoin:miter;stroke-opacity:1"
       d="m 14.69054,977.54754 c 0,-1.34687 0,-2.69374 0,-4.04061 0,-0.50507 -0.09035,-1.0183 0,-1.51522 0.08109,-0.44601 0.336718,-0.8418 0.505076,-1.2627 0.168359,-0.42089 0.280167,-0.86909 0.505077,-1.26269 0.236256,-0.41345 0.724438,-0.6292 1.010152,-1.01015 0.112939,-0.15058 0.155694,-0.34367 0.252538,-0.50507 0.156157,-0.26027 0.34892,-0.49736 0.505077,-0.75762 0.09684,-0.16141 0.148126,-0.34846 0.252538,-0.50508 0.06604,-0.0991 0.186502,-0.15348 0.252538,-0.25253 0.104412,-0.15662 0.119439,-0.37198 0.252538,-0.50508 0.05952,-0.0595 0.193014,0.0595 0.252538,0 0.214616,-0.21462 0.29046,-0.543 0.505076,-0.75761 1.268728,-1.26873 0.266296,0.0395 1.262691,-0.75762 0.278882,-0.2231 0.438176,-0.59789 0.757615,-0.75761 1.086304,-0.54316 1.126758,0.031 2.020305,-0.50508 0.204165,-0.1225 0.300911,-0.38258 0.505076,-0.50508 1.089479,-0.65368 0.382541,-0.0325 1.262691,-0.25253 0.18261,-0.0457 0.322465,-0.20689 0.505076,-0.25254 0.163332,-0.0408 0.336717,0 0.505076,0 0.505076,0 1.010153,0 1.515229,0 0.420897,0 0.841794,0 1.262691,0 0.08418,0 0.172678,0.0266 0.252538,0 0.178571,-0.0595 0.326505,-0.19302 0.505076,-0.25254 0.163624,-0.0545 1.055938,0 1.262691,0 0.757614,0 1.515229,0 2.272843,0 0.925973,0 1.851946,0 2.777919,0 0.168359,0 0.336718,0 0.505077,0 0.168359,0 0.345357,-0.0532 0.505076,0 0.112939,0.0376 0.153485,0.1865 0.252538,0.25254 0.156618,0.10441 0.336718,0.16836 0.505076,0.25254 0.168359,0.0842 0.326505,0.19301 0.505077,0.25253 0.07986,0.0266 0.182496,-0.0467 0.252538,0 0.773213,0.51548 0.29184,0.38912 0.757614,1.01016 0.142857,0.19047 0.362219,0.3146 0.505077,0.50507 0.225877,0.30117 0.279199,0.70899 0.505076,1.01016 0.142857,0.19047 0.336717,0.33671 0.505076,0.50507 0.168359,0.16836 0.336718,0.33672 0.505076,0.50508 0.08418,0.0842 0.186503,0.15348 0.252538,0.25254 0.245347,0.36802 0.15766,0.526 0.505077,0.75761 0.156617,0.10441 0.371977,0.11944 0.505076,0.25254 0.133099,0.1331 0.148127,0.34846 0.252538,0.50508 0.06604,0.0991 0.186503,0.15348 0.252538,0.25253 0.208824,0.31324 0.2792,0.70899 0.505077,1.01016 0.142857,0.19047 0.373004,0.30696 0.505076,0.50507 0.04669,0.07 -0.04669,0.1825 0,0.25254 0.335439,0.50316 0.852769,0.63316 1.010152,1.26269 0.04083,0.16333 -0.04083,0.34175 0,0.50508 0.04565,0.18261 0.182631,0.33031 0.252539,0.50507 0.197727,0.49432 0.336717,1.01016 0.505076,1.51523 0.168359,0.50508 0.307349,1.02091 0.505076,1.51523 0.06991,0.17477 0.193014,0.32651 0.252538,0.50508 0.02662,0.0799 -0.02662,0.17268 0,0.25254 0.305175,0.91552 0.119821,0.17973 0.505076,0.75761 0.104412,0.15662 0.168359,0.33672 0.252539,0.50508 0.08418,0.16835 0.168358,0.33671 0.252538,0.50507 0.08418,0.16836 0.168359,0.33672 0.252538,0.50508 0.08418,0.16836 0.148126,0.34846 0.252538,0.50507 0.247735,0.37161 0.762417,0.63855 1.010153,1.01016 0.04669,0.07 -0.05952,0.19301 0,0.25254 0.119047,0.11904 0.354491,-0.0753 0.505076,0 0.106479,0.0532 0.1396,0.21489 0.252538,0.25253 0.159719,0.0532 0.339987,-0.033 0.505076,0 0.522059,0.10442 1.003316,0.35882 1.515229,0.50508 0.333726,0.0953 0.691135,0.11582 1.010153,0.25254 1.631785,0.69933 -0.03238,0.22664 1.26269,1.26269 0.207866,0.16629 0.510456,0.15367 0.757615,0.25254 0.174768,0.0699 0.348459,0.14812 0.505076,0.25254 0.09905,0.066 0.1396,0.21489 0.252538,0.25253 0.159719,0.0532 0.345357,-0.0532 0.505076,0 0.112939,0.0376 0.1396,0.2149 0.252539,0.25254 0.159719,0.0532 0.336717,0 0.505076,0 0.168359,0 0.336717,0 0.505076,0 0.673435,0 1.34687,0 2.020305,0 0.589256,0 1.178511,0 1.767767,0 0.168359,0 0.336718,0 0.505076,0 0.08418,0 0.177246,0.0376 0.252539,0 0.106479,-0.0532 0.153484,-0.1865 0.252538,-0.25254 0.344786,-0.22985 1.692819,-0.72549 1.767767,-0.75761 1.322959,-0.56698 -0.532606,0.14003 1.26269,-0.75762 0.238096,-0.11904 0.529351,-0.11558 0.757615,-0.25253 0.204165,-0.1225 0.300911,-0.38258 0.505076,-0.50508 0.228263,-0.13696 0.519519,-0.13349 0.757614,-0.25254 0.10648,-0.0532 0.146059,-0.1993 0.252539,-0.25254 0.07529,-0.0376 0.193014,0.0595 0.252538,0 0.05952,-0.0595 -0.05952,-0.19301 0,-0.25253 0.05952,-0.0595 0.168358,0 0.252538,0 0,-0.0842 -0.05952,-0.19302 0,-0.25254 0.05952,-0.0595 0.193014,0.0595 0.252538,0 0.133099,-0.1331 0.119439,-0.37198 0.252538,-0.50508 0.133099,-0.1331 0.348459,-0.14813 0.505076,-0.25254 0.09905,-0.066 0.168359,-0.16836 0.252539,-0.25254 0.08418,-0.0842 0.186502,-0.15348 0.252538,-0.25253 0.604088,-0.90614 -0.244535,-0.21712 1.010152,-1.26269 0.428427,-0.35703 0.921958,-0.55585 1.262691,-1.01016 0.182108,-0.24281 0.328663,-0.51063 0.505076,-0.75761 0.244642,-0.3425 0.524143,-0.65995 0.757615,-1.01015 0.104411,-0.15662 0.148126,-0.34846 0.252538,-0.50508 0.132071,-0.19811 0.356339,-0.31915 0.505076,-0.50508 0.262932,-0.32866 0.488163,-0.68681 0.757614,-1.01015 0.152425,-0.18291 0.336718,-0.33672 0.505077,-0.50507 0.08418,-0.0842 0.199298,-0.14606 0.252538,-0.25254 0.03765,-0.0753 -0.03765,-0.17725 0,-0.25254 0.05324,-0.10648 0.199298,-0.14606 0.252538,-0.25254 0.03765,-0.0753 -0.05952,-0.19301 0,-0.25254 0.05952,-0.0595 0.193014,0.0595 0.252538,0 0.119048,-0.11904 -0.07529,-0.35449 0,-0.50507 0.05324,-0.10648 0.168359,-0.16836 0.252538,-0.25254 0.336718,-0.33672 0.700252,-0.6486 1.010153,-1.01015 0.197523,-0.23045 0.315473,-0.52061 0.505076,-0.75762 0.148737,-0.18592 0.398597,-0.29212 0.505076,-0.50507 0.07529,-0.15059 -0.07529,-0.3545 0,-0.50508 0.03765,-0.0753 0.172679,0.0266 0.252538,0 0.178572,-0.0595 0.326505,-0.19302 0.505077,-0.25254 0.07986,-0.0266 0.193014,0.0595 0.252538,0 0.05952,-0.0595 -0.05952,-0.19301 0,-0.25254 0.05952,-0.0595 0.193014,0.0595 0.252538,0 0.05952,-0.0595 -0.05952,-0.19301 0,-0.25254 0.05952,-0.0595 0.193014,0.0595 0.252538,0 0.05952,-0.0595 -0.03765,-0.17724 0,-0.25253 0.05324,-0.10648 0.199299,-0.14606 0.252538,-0.25254 0.03765,-0.0753 -0.05952,-0.19302 0,-0.25254 0.05952,-0.0595 0.193015,0.0595 0.252538,0 0.05952,-0.0595 -0.05952,-0.19301 0,-0.25254 0.522511,-0.52251 -0.02042,0.79847 0.505077,-0.25254 0.07529,-0.15058 -0.07529,-0.35449 0,-0.50507 0.05324,-0.10648 0.199298,-0.14606 0.252538,-0.25254 0.03765,-0.0753 -0.03765,-0.17725 0,-0.25254 0.05324,-0.10648 0.199298,-0.14606 0.252538,-0.25254 0.07529,-0.15058 -0.119048,-0.38603 0,-0.50507 0.05952,-0.0595 0.177246,0.0376 0.252538,0 0.312062,-0.15603 0.252538,-0.24382 0.252538,-0.50508"
       id="path4680"
       inkscape:connector-curvature="0" />
    <path
       style="fill:none;stroke:#000000;stroke-width:1px;stroke-linecap:butt;stroke-linejoin:miter;stroke-opacity:1"
       d="m 15.631845,991.74755 c 0,-1.34689 0,-2.69379 0,-4.04059 0,-0.5051 -0.09035,-1.0183 0,-1.5153 0.08109,-0.446 0.336718,-0.8418 0.505076,-1.2627 0.168359,-0.4209 0.280167,-0.8691 0.505077,-1.2627 0.236256,-0.4134 0.724438,-0.6292 1.010152,-1.0101 0.112939,-0.1506 0.155694,-0.3437 0.252538,-0.5051 0.156157,-0.2602 0.34892,-0.4973 0.505077,-0.7576 0.09684,-0.1614 0.148126,-0.3485 0.252538,-0.5051 0.06604,-0.099 0.186502,-0.1535 0.252538,-0.2525 0.104412,-0.1566 0.119439,-0.372 0.252538,-0.5051 0.05952,-0.059 0.193014,0.059 0.252538,0 0.214616,-0.2146 0.29046,-0.543 0.505076,-0.7576 1.268728,-1.2687 0.266296,0.04 1.262691,-0.7576 0.278882,-0.2231 0.438176,-0.5979 0.757615,-0.7576 1.086304,-0.5432 1.126758,0.031 2.020305,-0.5051 0.204165,-0.1225 0.300911,-0.3826 0.505076,-0.5051 1.089479,-0.6537 0.382541,-0.033 1.262691,-0.2525 0.18261,-0.046 0.322465,-0.2069 0.505076,-0.2526 0.163332,-0.041 0.336717,0 0.505076,0 0.505076,0 1.010153,0 1.515229,0 0.420897,0 0.841794,0 1.262691,0 0.08418,0 0.172678,0.027 0.252538,0 0.178571,-0.059 0.326505,-0.193 0.505076,-0.25249 0.163624,-0.0545 1.055938,0 1.262691,0 0.757614,0 1.515229,0 2.272843,0 0.925973,0 1.851946,0 2.777919,0 0.168359,0 0.336718,0 0.505077,0 0.168359,0 0.345357,-0.0532 0.505076,0 0.112939,0.0376 0.153485,0.18649 0.252538,0.25249 0.156618,0.1045 0.336718,0.1684 0.505076,0.2526 0.168359,0.084 0.326505,0.193 0.505077,0.2525 0.07986,0.027 0.182496,-0.047 0.252538,0 0.773213,0.5155 0.29184,0.3891 0.757614,1.0102 0.142857,0.1904 0.362219,0.3146 0.505077,0.505 0.225877,0.3012 0.279199,0.709 0.505076,1.0102 0.142857,0.1905 0.336717,0.3367 0.505076,0.5051 0.168359,0.1683 0.336718,0.3367 0.505076,0.5051 0.08418,0.084 0.186503,0.1534 0.252538,0.2525 0.245347,0.368 0.15766,0.526 0.505077,0.7576 0.156617,0.1044 0.371977,0.1194 0.505076,0.2525 0.133099,0.1331 0.148127,0.3485 0.252538,0.5051 0.06604,0.099 0.186503,0.1535 0.252538,0.2526 0.208824,0.3132 0.2792,0.7089 0.505077,1.0101 0.142857,0.1905 0.373004,0.307 0.505076,0.5051 0.04669,0.07 -0.04669,0.1825 0,0.2525 0.335439,0.5032 0.852769,0.6332 1.010152,1.2627 0.04083,0.1633 -0.04083,0.3418 0,0.5051 0.04565,0.1826 0.182631,0.3303 0.252539,0.5051 0.197727,0.4943 0.336717,1.0101 0.505076,1.5152 0.168359,0.5051 0.307349,1.0209 0.505076,1.5152 0.06991,0.1748 0.193014,0.3265 0.252538,0.5051 0.02662,0.08 -0.02662,0.1727 0,0.2525 0.305175,0.9156 0.119821,0.1798 0.505076,0.7577 0.104412,0.1566 0.168359,0.33669 0.252539,0.50499 0.08418,0.1684 0.168358,0.3367 0.252538,0.5051 0.08418,0.1684 0.168359,0.3367 0.252538,0.5051 0.08418,0.1683 0.148126,0.3484 0.252538,0.5051 0.247735,0.3716 0.762417,0.6385 1.010153,1.0101 0.04669,0.07 -0.05952,0.1931 0,0.2526 0.119047,0.119 0.354491,-0.075 0.505076,0 0.106479,0.053 0.1396,0.2149 0.252538,0.2525 0.159719,0.053 0.339987,-0.033 0.505076,0 0.522059,0.1044 1.003316,0.3588 1.515229,0.5051 0.333726,0.095 0.691135,0.1158 1.010153,0.2525 1.631785,0.69941 -0.03238,0.2267 1.26269,1.26271 0.207866,0.1663 0.510456,0.1537 0.757615,0.2526 0.174768,0.07 0.348459,0.1481 0.505076,0.2525 0.09905,0.066 0.1396,0.2149 0.252538,0.2525 0.159719,0.053 0.345357,-0.053 0.505076,0 0.112939,0.038 0.1396,0.2149 0.252539,0.2526 0.159719,0.053 0.336717,0 0.505076,0 0.168359,0 0.336717,0 0.505076,0 0.673435,0 1.34687,0 2.020305,0 0.589256,0 1.178511,0 1.767767,0 0.168359,0 0.336718,0 0.505076,0 0.08418,0 0.177246,0.038 0.252539,0 0.106479,-0.053 0.153484,-0.1865 0.252538,-0.2526 0.344786,-0.2298 1.692819,-0.7255 1.767767,-0.7576 1.322959,-0.567 -0.532606,0.1401 1.26269,-0.7576 0.238096,-0.119 0.529351,-0.1156 0.757615,-0.25251 0.204165,-0.1225 0.300911,-0.3826 0.505076,-0.5051 0.228263,-0.137 0.519519,-0.1335 0.757614,-0.2525 0.10648,-0.053 0.146059,-0.1993 0.252539,-0.2526 0.07529,-0.038 0.193014,0.06 0.252538,0 0.05952,-0.059 -0.05952,-0.193 0,-0.2525 0.05952,-0.06 0.168358,0 0.252538,0 0,-0.084 -0.05952,-0.193 0,-0.2526 0.05952,-0.059 0.193014,0.059 0.252538,0 0.133099,-0.1331 0.119439,-0.372 0.252538,-0.5051 0.133099,-0.1331 0.348459,-0.1481 0.505076,-0.2525 0.09905,-0.066 0.168359,-0.1684 0.252539,-0.2525 0.08418,-0.084 0.186502,-0.1535 0.252538,-0.2526 0.604088,-0.9061 -0.244535,-0.2171 1.010152,-1.2627 0.428427,-0.35699 0.921958,-0.55579 1.262691,-1.01009 0.182108,-0.2428 0.328663,-0.5107 0.505076,-0.7576 0.244638,-0.3425 0.524148,-0.66 0.757618,-1.0102 0.10441,-0.1566 0.14812,-0.3484 0.25254,-0.5051 0.13207,-0.1981 0.35633,-0.3191 0.50507,-0.505 0.26293,-0.3287 0.48816,-0.6869 0.75762,-1.0102 0.15242,-0.1829 0.33671,-0.3367 0.50507,-0.5051 0.0842,-0.084 0.1993,-0.146 0.25254,-0.2525 0.0376,-0.075 -0.0376,-0.1773 0,-0.2525 0.0532,-0.1065 0.1993,-0.1461 0.25254,-0.2526 0.0376,-0.075 -0.0595,-0.193 0,-0.2525 0.0595,-0.059 0.19301,0.06 0.25254,0 0.11904,-0.1191 -0.0753,-0.3545 0,-0.5051 0.0532,-0.1065 0.16836,-0.1684 0.25253,-0.2525 0.33672,-0.3368 0.70026,-0.6486 1.01016,-1.0102 0.19752,-0.2304 0.31547,-0.5206 0.50507,-0.7576 0.14874,-0.1859 0.3986,-0.2921 0.50508,-0.5051 0.0753,-0.1506 -0.0753,-0.3545 0,-0.5051 0.0376,-0.075 0.17268,0.027 0.25254,0 0.17857,-0.06 0.3265,-0.193 0.50507,-0.2525 0.0799,-0.027 0.19302,0.06 0.25254,0 0.0595,-0.059 -0.0595,-0.193 0,-0.2525 0.0595,-0.06 0.19302,0.059 0.25254,0 0.0595,-0.06 -0.0595,-0.193 0,-0.2526 0.0595,-0.06 0.19301,0.059 0.25254,0 0.0595,-0.06 -0.0376,-0.1772 0,-0.2525 0.0532,-0.1065 0.1993,-0.1461 0.25254,-0.2525 0.0376,-0.075 -0.0595,-0.1931 0,-0.2526 0.0595,-0.059 0.19301,0.059 0.25253,0 0.0595,-0.059 -0.0595,-0.193 0,-0.2525 0.52252,-0.5225 -0.0204,0.7984 0.50508,-0.2526 0.0753,-0.1505 -0.0753,-0.3545 0,-0.505 0.0532,-0.1065 0.1993,-0.1461 0.25254,-0.2526 0.0376,-0.075 -0.0376,-0.1772 0,-0.2525 0.0532,-0.1065 0.1993,-0.1461 0.25254,-0.2526 0.0753,-0.1505 -0.11905,-0.386 0,-0.505 0.0595,-0.06 0.17724,0.038 0.25254,0 0.31206,-0.1561 0.25253,-0.2438 0.25253,-0.5051"
       id="path4680-6"
       inkscape:connector-curvature="0" />
    <rect
       style="opacity:0.90178576;fill:#000000;fill-opacity:1;stroke:#000000;stroke-opacity:1"
       id="rect4700"
       width="72.73098"
       height="4.0406103"
       x="7.0710678"
       y="1020.908" />
    <rect
       style="opacity:0.90178576;fill:#000000;fill-opacity:1;stroke:#000000;stroke-width:0.89124495;stroke-opacity:1"
       id="rect4702"
       width="27.684019"
       height="2.0256598"
       x="-854.17834"
       y="750.9812"
       transform="matrix(-0.77183095,-0.6358278,-0.77183095,0.6358278,0,0)" />
    <rect
       style="opacity:0.90178576;fill:#000000;fill-opacity:1;stroke:#000000;stroke-width:0.89124495;stroke-opacity:1"
       id="rect4702-3"
       width="27.684019"
       height="2.0256598"
       x="754.72565"
       y="-857.84094"
       transform="matrix(-0.77183095,0.6358278,-0.77183095,-0.6358278,0,0)" />
  </g>
</svg>
