<?xml version="1.0" encoding="UTF-8" standalone="no"?>
<!-- Created with Inkscape (http://www.inkscape.org/) -->

<svg
   xmlns:osb="http://www.openswatchbook.org/uri/2009/osb"
   xmlns:dc="http://purl.org/dc/elements/1.1/"
   xmlns:cc="http://creativecommons.org/ns#"
   xmlns:rdf="http://www.w3.org/1999/02/22-rdf-syntax-ns#"
   xmlns:svg="http://www.w3.org/2000/svg"
   xmlns="http://www.w3.org/2000/svg"
   xmlns:sodipodi="http://sodipodi.sourceforge.net/DTD/sodipodi-0.dtd"
   xmlns:inkscape="http://www.inkscape.org/namespaces/inkscape"
   width="100"
   height="100"
   id="svg2"
   version="1.1"
   inkscape:version="0.48.3.1 r9886"
   sodipodi:docname="5.png">
  <defs
     id="defs4">
    <inkscape:path-effect
       effect="spiro"
       id="path-effect4156"
       is_visible="true" />
    <inkscape:path-effect
       effect="spiro"
       id="path-effect4146"
       is_visible="true" />
    <linearGradient
       id="linearGradient4115"
       osb:paint="solid">
      <stop
         style="stop-color:#cf8c8c;stop-opacity:1;"
         offset="0"
         id="stop4117" />
    </linearGradient>
  </defs>
  <sodipodi:namedview
     id="base"
     pagecolor="#ffffff"
     bordercolor="#666666"
     borderopacity="1.0"
     inkscape:pageopacity="0.0"
     inkscape:pageshadow="2"
     inkscape:zoom="3.959798"
     inkscape:cx="28.428779"
     inkscape:cy="61.057471"
     inkscape:document-units="px"
     inkscape:current-layer="layer1"
     showgrid="false"
     width="1px"
     inkscape:window-width="1438"
     inkscape:window-height="879"
     inkscape:window-x="0"
     inkscape:window-y="19"
     inkscape:window-maximized="0" />
  <metadata
     id="metadata7">
    <rdf:RDF>
      <cc:Work
         rdf:about="">
        <dc:format>image/svg+xml</dc:format>
        <dc:type
           rdf:resource="http://purl.org/dc/dcmitype/StillImage" />
        <dc:title></dc:title>
      </cc:Work>
    </rdf:RDF>
  </metadata>
  <g
     inkscape:label="Layer 1"
     inkscape:groupmode="layer"
     id="layer1"
     transform="translate(0,-952.36218)">
    <path
       sodipodi:type="arc"
       style="opacity:0.98000004;fill:none;stroke:#000000;stroke-opacity:1"
       id="path3345"
       sodipodi:cx="44.95179"
       sodipodi:cy="65.149734"
       sodipodi:rx="25.506351"
       sodipodi:ry="26.769043"
       d="m 70.458141,65.149734 a 25.506351,26.769043 0 1 1 -51.012703,0 25.506351,26.769043 0 1 1 51.012703,0 z"
       transform="matrix(1.0832711,0,0,1.0085885,2.4388732,934.88781)" />
    <path
       style="fill:none;stroke:#000000;stroke-width:1px;stroke-linecap:butt;stroke-linejoin:miter;stroke-opacity:1"
       d="m 33.990991,999.3471 c 0.136641,-0.1542 -0.06775,-1.26842 0,-1.60716 0.03692,-0.18458 0.12686,-0.35473 0.178571,-0.53572 0.06742,-0.23598 0.06882,-0.49477 0.178572,-0.71428 0.07529,-0.15059 0.256127,-0.22246 0.357143,-0.35715 0.07986,-0.10648 0.09871,-0.25066 0.178571,-0.35714 0.101015,-0.13469 0.256128,-0.22246 0.357143,-0.35714 0.19022,-0.25363 0.22236,-0.73618 0.535714,-0.89286 0.05324,-0.0266 0.125332,0.0266 0.178572,0 0.07529,-0.0376 0.119047,-0.11905 0.178571,-0.17857 0.119048,-0.11905 0.249362,-0.22781 0.357143,-0.35714 0.190531,-0.22864 0.342026,-0.48832 0.535714,-0.71429 0.16435,-0.19174 0.357143,-0.35714 0.535715,-0.53571 0.178571,-0.17857 0.338515,-0.37796 0.535714,-0.53572 0.103933,-0.0832 0.246397,-0.10474 0.357143,-0.17857 0.140083,-0.0934 0.206558,-0.28185 0.357143,-0.35714 0.05324,-0.0266 0.125331,0.0266 0.178571,0 0.07529,-0.0377 0.09871,-0.15195 0.178571,-0.17857 0.112939,-0.0376 0.250664,0.0532 0.357143,0 0.150585,-0.0753 0.21706,-0.26376 0.357143,-0.35715 0.221491,-0.14766 0.476191,-0.23809 0.714286,-0.35714 0.119047,-0.0595 0.230874,-0.13648 0.357143,-0.17857 0.05647,-0.0188 0.122102,0.0188 0.178571,0 0.126269,-0.0421 0.230874,-0.13648 0.357143,-0.17857 0.160714,-0.0536 0.375,0.0536 0.535714,0 0.07986,-0.0266 0.10853,-0.13188 0.178572,-0.17857 0.314086,-0.20939 0.52986,-0.21195 0.892857,-0.35715 0.123579,-0.0494 0.228017,-0.14629 0.357143,-0.17857 1.184493,0 -0.252538,0.0842 0.535714,-0.17857 0.225877,-0.0753 0.488409,0.0753 0.714286,0 0.07986,-0.0266 0.09871,-0.15195 0.178571,-0.17857 0.169408,-0.0565 0.357143,0 0.535714,0 0.297619,0 0.595238,0 0.892858,0 0.238095,0 0.47619,0 0.714285,0 0.119048,0 0.24165,-0.0289 0.357143,0 0.129125,0.0323 0.238095,0.11905 0.357143,0.17857 0.119048,0.0595 0.246398,0.10474 0.357143,0.17857 0.140083,0.0934 0.21706,0.26376 0.357143,0.35715 0.110745,0.0738 0.263027,0.0845 0.357143,0.17857 0.09411,0.0941 0.08446,0.26302 0.178571,0.35714 0.433715,0.43371 0.262218,-0.0531 0.535714,0.35714 0.07383,0.11075 0.119048,0.2381 0.178572,0.35715 0.119047,0.11904 0.256127,0.22245 0.357143,0.35714 0.07986,0.10648 0.104741,0.2464 0.178571,0.35714 0.220114,0.33017 0.3156,0.027 0.535714,0.35714 0.06604,0.0991 -0.05324,0.25067 0,0.35715 0.178572,0.35714 0.357143,0.26785 0.535715,0.53571 0.21978,0.32967 0.315934,0.74176 0.535714,1.07143 0.04669,0.07 0.131877,0.10853 0.178571,0.17857 0.07383,0.11075 0.119048,0.2381 0.178572,0.35714 0.05952,0.11905 0.136481,0.23088 0.178571,0.35715 0.177192,0.53157 -0.422834,-0.3664 0.178572,0.53571 0.09339,0.14008 0.263754,0.21706 0.357142,0.35714 0.647374,1.29475 -0.18823,-0.28234 0.357143,0.53572 0.21978,0.32967 0.315934,0.74176 0.535715,1.07143 0.04669,0.07 0.131877,0.10853 0.178571,0.17857 0.07383,0.11074 0.104741,0.2464 0.178571,0.35719 0.04669,0.07 0.131878,0.1085 0.178572,0.1785 0.07383,0.1108 0.08446,0.263 0.178571,0.3572 0.09412,0.094 0.246398,0.1047 0.357143,0.1785 0.410244,0.2735 -0.07657,0.102 0.357143,0.5358 0.04209,0.042 0.125332,-0.027 0.178571,0 0.150585,0.075 0.21706,0.2637 0.357143,0.3571 0.110746,0.074 0.246398,0.1047 0.357143,0.1786 0.07004,0.047 0.119048,0.119 0.178572,0.1785 0.119047,0.06 0.246397,0.1048 0.357142,0.1786 0.07004,0.047 0.119048,0.1191 0.178572,0.1786 0.229866,0.2298 0.38759,0.4268 0.714286,0.5357 0.160714,0.054 0.375,-0.054 0.535714,0 0.07986,0.027 0.09871,0.1519 0.178571,0.1786 0.112939,0.038 0.244205,-0.038 0.357143,0 0.07986,0.027 0.09871,0.1519 0.178572,0.1785 0.169407,0.057 0.357142,0 0.535714,0 0.268172,0 0.656234,0.047 0.892857,0 0.196108,-0.039 0.815583,-0.4842 0.892857,-0.5357 0.357143,-0.2381 0.741683,-0.4395 1.071429,-0.7143 0.664651,-0.5538 0.480253,-0.5603 1.071428,-1.25 0.273916,-0.3195 0.640319,-0.5561 0.892857,-0.89282 0.130499,-0.174 0.13867,-0.42648 0.357143,-0.53571 0.05324,-0.0266 0.136482,0.0421 0.178572,0 0.04209,-0.0421 -0.03572,-0.13096 0,-0.17858 0.252538,-0.33671 0.595238,-0.59523 0.892857,-0.89285 0.119047,-0.11905 0.263754,-0.21706 0.357143,-0.35715 0.03302,-0.0495 -0.03302,-0.12904 0,-0.17857 0.508977,-0.76346 0.176476,0.002 0.892857,-0.53571 0.106479,-0.0799 0.08446,-0.26303 0.178571,-0.35714 0.09412,-0.0941 0.263028,-0.0845 0.357143,-0.17858 0.04209,-0.0421 -0.02662,-0.12533 0,-0.17857 0.03765,-0.0753 0.140925,-0.10328 0.178572,-0.17857 0.02662,-0.0532 -0.04209,-0.13648 0,-0.17857 0.04209,-0.0421 0.136481,0.0421 0.178571,0 0.04209,-0.0421 -0.03571,-0.13095 0,-0.17857 0.151523,-0.20203 0.388929,-0.33022 0.535714,-0.53572 0.232087,-0.32492 0.357143,-0.71428 0.535715,-1.07142 0.05952,-0.11905 0.119047,-0.2381 0.178571,-0.35715 0.05952,-0.11905 0.14629,-0.22802 0.178571,-0.35714 0,-0.81291 -0.08418,-0.0102 0.178572,-0.53571 0.0354,-0.0708 -0.03651,-0.49921 0,-0.53572 0.04209,-0.0421 0.136482,0.0421 0.178571,0 0.03651,-0.0365 -0.0354,-0.46491 0,-0.53571 0.03765,-0.0753 0.140926,-0.10328 0.178572,-0.17857 0.02348,-0.0469 0,-0.62091 0,-0.71429"
       id="path4166"
       inkscape:connector-curvature="0" />
    <path
       style="fill:none;stroke:#000000;stroke-width:1px;stroke-linecap:butt;stroke-linejoin:miter;stroke-opacity:1"
       d="m 32.921439,1006.4899 c 0.136641,-0.1542 -0.06775,-1.2684 0,-1.6071 0.03692,-0.1846 0.12686,-0.3547 0.178571,-0.5357 0.06742,-0.236 0.06882,-0.4948 0.178572,-0.7143 0.07529,-0.1506 0.256127,-0.2225 0.357143,-0.3572 0.07986,-0.1064 0.09871,-0.2506 0.178571,-0.3571 0.101015,-0.1347 0.256128,-0.2225 0.357143,-0.3571 0.19022,-0.2537 0.22236,-0.7362 0.535714,-0.8929 0.05324,-0.027 0.125332,0.027 0.178572,0 0.07529,-0.038 0.119047,-0.119 0.178571,-0.1786 0.119048,-0.119 0.249362,-0.2278 0.357143,-0.3571 0.190531,-0.2286 0.342026,-0.4883 0.535714,-0.7143 0.16435,-0.1917 0.357143,-0.3571 0.535715,-0.5357 0.178571,-0.1786 0.338515,-0.378 0.535714,-0.5357 0.103933,-0.083 0.246397,-0.1048 0.357143,-0.1786 0.140083,-0.093 0.206558,-0.2818 0.357143,-0.3571 0.05324,-0.027 0.125331,0.027 0.178571,0 0.07529,-0.038 0.09871,-0.152 0.178571,-0.1786 0.112939,-0.038 0.250664,0.053 0.357143,0 0.150585,-0.075 0.21706,-0.2638 0.357143,-0.3572 0.221491,-0.14762 0.476191,-0.23805 0.714286,-0.3571 0.119047,-0.0595 0.230874,-0.13648 0.357143,-0.17857 0.05647,-0.0188 0.122102,0.0188 0.178571,0 0.126269,-0.0421 0.230874,-0.13648 0.357143,-0.17857 0.160714,-0.0536 0.375,0.0536 0.535714,0 0.07986,-0.0266 0.10853,-0.13188 0.178572,-0.17858 0.314086,-0.20939 0.52986,-0.21194 0.892857,-0.35714 0.123579,-0.0494 0.228017,-0.14629 0.357143,-0.17857 1.184492,0 -0.252538,0.0842 0.535713,-0.17857 0.225877,-0.0753 0.488409,0.0753 0.714286,0 0.07986,-0.0266 0.09871,-0.15195 0.178571,-0.17857 0.169408,-0.0565 0.357143,0 0.535714,0 0.297619,0 0.595238,0 0.892858,0 0.238095,0 0.47619,0 0.714285,0 0.119048,0 0.24165,-0.0289 0.357143,0 0.129125,0.0323 0.238095,0.11904 0.357143,0.17857 0.119048,0.0595 0.246398,0.10474 0.357143,0.17857 0.140083,0.0934 0.21706,0.26375 0.357143,0.35714 0.110745,0.0738 0.263027,0.0845 0.357143,0.17857 0.09411,0.0941 0.08446,0.26303 0.178571,0.35715 0.433715,0.43371 0.262218,-0.0531 0.535714,0.35714 0.07383,0.11075 0.119048,0.23813 0.178572,0.35713 0.119047,0.1191 0.256127,0.2225 0.357143,0.3572 0.07986,0.1064 0.104741,0.2464 0.178571,0.3571 0.220114,0.3302 0.3156,0.027 0.535714,0.3571 0.06604,0.099 -0.05324,0.2507 0,0.3572 0.178572,0.3571 0.357143,0.2678 0.535715,0.5357 0.21978,0.3297 0.315934,0.7418 0.535714,1.0714 0.04669,0.07 0.131877,0.1086 0.178571,0.1786 0.07383,0.1107 0.119048,0.2381 0.178572,0.3571 0.05952,0.1191 0.136481,0.2309 0.178571,0.3572 0.177192,0.5316 -0.422834,-0.3664 0.178572,0.5357 0.09339,0.1401 0.263754,0.2171 0.357142,0.3571 0.647374,1.2948 -0.18823,-0.2823 0.357143,0.5358 0.21978,0.3296 0.315934,0.7417 0.535715,1.0714 0.04669,0.07 0.131877,0.1085 0.178571,0.1786 0.07383,0.1107 0.104741,0.2464 0.178571,0.3571 0.04669,0.07 0.131878,0.1085 0.178572,0.1786 0.07383,0.1107 0.08446,0.263 0.178571,0.3571 0.09412,0.094 0.246398,0.1048 0.357143,0.1786 0.410244,0.2735 -0.07657,0.102 0.357143,0.5357 0.04209,0.042 0.125332,-0.027 0.178571,0 0.150585,0.075 0.21706,0.2638 0.357143,0.3571 0.110746,0.074 0.246398,0.1048 0.357143,0.1786 0.07004,0.047 0.119048,0.1191 0.178572,0.1786 0.119047,0.059 0.246397,0.1047 0.357142,0.1785 0.07004,0.047 0.119048,0.1191 0.178572,0.1786 0.229866,0.2299 0.38759,0.4268 0.714286,0.5357 0.160714,0.054 0.375,-0.054 0.535714,0 0.07986,0.027 0.09871,0.152 0.178571,0.1786 0.112939,0.038 0.244205,-0.038 0.357143,0 0.07986,0.027 0.09871,0.1519 0.178572,0.1786 0.169407,0.057 0.357142,0 0.535714,0 0.268172,0 0.656234,0.047 0.892857,0 0.196108,-0.039 0.815583,-0.4842 0.892857,-0.5358 0.357143,-0.2381 0.741683,-0.4395 1.071429,-0.7142 0.664651,-0.5539 0.480253,-0.5603 1.071428,-1.25 0.273916,-0.3196 0.640319,-0.5562 0.892857,-0.8929 0.130499,-0.174 0.13867,-0.4264 0.357143,-0.5357 0.05324,-0.027 0.136482,0.042 0.178572,0 0.04209,-0.042 -0.03572,-0.1309 0,-0.1786 0.252538,-0.3367 0.595238,-0.5952 0.892857,-0.8928 0.119047,-0.1191 0.263754,-0.2171 0.357143,-0.3572 0.03302,-0.049 -0.03302,-0.129 0,-0.1785 0.508977,-0.7635 0.176476,0 0.892857,-0.5357 0.106479,-0.08 0.08446,-0.2631 0.178571,-0.3572 0.09412,-0.094 0.263028,-0.084 0.357143,-0.1786 0.04209,-0.042 -0.02662,-0.1253 0,-0.1785 0.03765,-0.075 0.140925,-0.1033 0.178572,-0.1786 0.02662,-0.053 -0.04209,-0.1365 0,-0.1786 0.04209,-0.042 0.136481,0.042 0.178571,0 0.04209,-0.042 -0.03571,-0.1309 0,-0.1785 0.151523,-0.2021 0.388929,-0.3303 0.535714,-0.5358 0.232087,-0.3249 0.357143,-0.7142 0.535715,-1.0714 0.05952,-0.119 0.119047,-0.2381 0.178571,-0.3571 0.05952,-0.1191 0.14629,-0.228 0.178571,-0.3572 0,-0.81288 -0.08418,-0.01 0.178572,-0.5357 0.0354,-0.071 -0.03651,-0.49919 0,-0.5357 0.04209,-0.0421 0.136482,0.0421 0.178571,0 0.03651,-0.0365 -0.0354,-0.46491 0,-0.53572 0.03765,-0.0753 0.140926,-0.10327 0.178572,-0.17857 0.02348,-0.0469 0,-0.6209 0,-0.71428"
       id="path4166-7"
       inkscape:connector-curvature="0" />
    <path
       style="fill:none;stroke:#000000;stroke-width:1px;stroke-linecap:butt;stroke-linejoin:miter;stroke-opacity:1"
       d="m 33.278582,1013.8113 c 0.136641,-0.1541 -0.06775,-1.2683 0,-1.6071 0.03692,-0.1846 0.12686,-0.3547 0.178571,-0.5357 0.06742,-0.236 0.06882,-0.4948 0.178572,-0.7143 0.07529,-0.1506 0.256127,-0.2224 0.357143,-0.3571 0.07986,-0.1065 0.09871,-0.2507 0.178571,-0.3572 0.101015,-0.1347 0.256128,-0.2224 0.357143,-0.3571 0.19022,-0.2536 0.22236,-0.7362 0.535714,-0.8929 0.05324,-0.027 0.125332,0.027 0.178572,0 0.07529,-0.038 0.119047,-0.119 0.178571,-0.1785 0.119048,-0.1191 0.249362,-0.2278 0.357143,-0.3572 0.190531,-0.2286 0.342026,-0.4883 0.535714,-0.7143 0.16435,-0.1917 0.357143,-0.3571 0.535715,-0.5357 0.178571,-0.1786 0.338515,-0.3779 0.535714,-0.5357 0.103933,-0.083 0.246397,-0.1047 0.357143,-0.1786 0.140083,-0.093 0.206558,-0.2818 0.357143,-0.3571 0.05324,-0.027 0.125331,0.027 0.178571,0 0.07529,-0.038 0.09871,-0.152 0.178571,-0.1786 0.112939,-0.038 0.250664,0.053 0.357143,0 0.150585,-0.075 0.21706,-0.2637 0.357143,-0.3571 0.221491,-0.1477 0.476191,-0.2381 0.714286,-0.3572 0.119047,-0.059 0.230874,-0.1364 0.357143,-0.1785 0.05647,-0.019 0.122102,0.019 0.178571,0 0.126269,-0.042 0.230874,-0.1365 0.357143,-0.1786 0.160714,-0.054 0.375,0.054 0.535714,0 0.07986,-0.027 0.10853,-0.1319 0.178572,-0.1786 0.314086,-0.2094 0.52986,-0.2119 0.892857,-0.3571 0.123579,-0.049 0.228017,-0.1463 0.357143,-0.1786 1.184492,0 -0.252538,0.084 0.535713,-0.1786 0.225877,-0.075 0.488409,0.075 0.714286,0 0.07986,-0.027 0.09871,-0.1519 0.178571,-0.1785 0.169408,-0.057 0.357143,0 0.535714,0 0.297619,0 0.595238,0 0.892858,0 0.238095,0 0.47619,0 0.714285,0 0.119048,0 0.24165,-0.029 0.357143,0 0.129125,0.032 0.238095,0.119 0.357143,0.1785 0.119048,0.059 0.246398,0.1048 0.357143,0.1786 0.140083,0.093 0.21706,0.2638 0.357143,0.3571 0.110745,0.074 0.263027,0.084 0.357143,0.1786 0.09411,0.094 0.08446,0.263 0.178571,0.3572 0.433715,0.4337 0.262218,-0.053 0.535714,0.3571 0.07383,0.1108 0.119048,0.2381 0.178572,0.3571 0.119047,0.1191 0.256127,0.2225 0.357143,0.3572 0.07986,0.1065 0.104741,0.2464 0.178571,0.3571 0.220114,0.3302 0.3156,0.027 0.535714,0.3572 0.06604,0.099 -0.05324,0.2506 0,0.3571 0.178572,0.3572 0.357143,0.2679 0.535715,0.5357 0.21978,0.3297 0.315934,0.7418 0.535714,1.0715 0.04669,0.07 0.131877,0.1085 0.178571,0.1785 0.07383,0.1108 0.119048,0.2381 0.178572,0.3572 0.05952,0.119 0.136481,0.2309 0.178571,0.3571 0.177192,0.5316 -0.422834,-0.3664 0.178572,0.5357 0.09339,0.1401 0.263754,0.2171 0.357142,0.3572 0.647374,1.2947 -0.18823,-0.2824 0.357143,0.5357 0.21978,0.3297 0.315934,0.7417 0.535715,1.0714 0.04669,0.07 0.131877,0.1085 0.178571,0.1786 0.07383,0.1107 0.104741,0.2464 0.178571,0.3571 0.04669,0.07 0.131878,0.1086 0.178572,0.1786 0.07383,0.1108 0.08446,0.263 0.178571,0.3571 0.09412,0.094 0.246398,0.1048 0.357143,0.1786 0.410244,0.2735 -0.07657,0.102 0.357143,0.5357 0.04209,0.042 0.125332,-0.027 0.178571,0 0.150585,0.075 0.21706,0.2638 0.357143,0.3572 0.110746,0.074 0.246398,0.1047 0.357143,0.1785 0.07004,0.047 0.119048,0.1191 0.178572,0.1786 0.119047,0.06 0.246397,0.1047 0.357142,0.1786 0.07004,0.047 0.119048,0.119 0.178572,0.1785 0.229866,0.2299 0.38759,0.4269 0.714286,0.5358 0.160714,0.054 0.375,-0.054 0.535714,0 0.07986,0.027 0.09871,0.1519 0.178571,0.1785 0.112939,0.038 0.244205,-0.038 0.357143,0 0.07986,0.027 0.09871,0.152 0.178572,0.1786 0.169407,0.057 0.357142,0 0.535714,0 0.268172,0 0.656234,0.047 0.892857,0 0.196108,-0.039 0.815583,-0.4842 0.892857,-0.5357 0.357143,-0.2381 0.741683,-0.4395 1.071429,-0.7143 0.664651,-0.5539 0.480253,-0.5603 1.071428,-1.25 0.273916,-0.3195 0.640319,-0.5561 0.892857,-0.8928 0.130499,-0.174 0.13867,-0.4265 0.357143,-0.5358 0.05324,-0.027 0.136482,0.042 0.178572,0 0.04209,-0.042 -0.03572,-0.1309 0,-0.1785 0.252538,-0.3367 0.595238,-0.5953 0.892857,-0.8929 0.119047,-0.119 0.263754,-0.217 0.357143,-0.3571 0.03302,-0.05 -0.03302,-0.1291 0,-0.1786 0.508977,-0.7635 0.176476,0 0.892857,-0.5357 0.106479,-0.08 0.08446,-0.263 0.178571,-0.3572 0.09412,-0.094 0.263028,-0.085 0.357143,-0.1785 0.04209,-0.042 -0.02662,-0.1254 0,-0.1786 0.03765,-0.075 0.140925,-0.1033 0.178572,-0.1786 0.02662,-0.053 -0.04209,-0.1364 0,-0.1785 0.04209,-0.042 0.136481,0.042 0.178571,0 0.04209,-0.042 -0.03571,-0.131 0,-0.1786 0.151523,-0.202 0.388929,-0.3302 0.535714,-0.5357 0.232087,-0.3249 0.357143,-0.7143 0.535715,-1.0715 0.05952,-0.119 0.119047,-0.238 0.178571,-0.3571 0.05952,-0.119 0.14629,-0.228 0.178571,-0.3571 0,-0.8129 -0.08418,-0.01 0.178572,-0.5358 0.0354,-0.071 -0.03651,-0.4992 0,-0.5357 0.04209,-0.042 0.136482,0.042 0.178571,0 0.03651,-0.037 -0.0354,-0.4649 0,-0.5357 0.03765,-0.075 0.140926,-0.1033 0.178572,-0.1786 0.02348,-0.047 0,-0.6209 0,-0.7142"
       id="path4166-4"
       inkscape:connector-curvature="0" />
    <rect
       style="opacity:0.90178576;fill:#000000;fill-opacity:1;stroke:#000000;stroke-width:1.19176078;stroke-opacity:1"
       id="rect4344"
       width="84.098831"
       height="9.9165411"
       x="751.03772"
       y="735.96857"
       transform="matrix(0.76355061,0.64574799,-0.74982055,0.66164125,0,0)" />
  </g>
</svg>
